<?xml version="1.0" encoding="UTF-8"?><svg id="_图层_1" xmlns="http://www.w3.org/2000/svg" viewBox="0 0 50 21"><g opacity="0"><rect x="27.75" y="14.16" width="21.89" height="6.41" fill="#e53935"/></g><path d="M36.08,14.16h.56v1.08h1.08v-1.08h.56v2.75h-.56v-1.21h-1.08v1.21h-.56v-2.75Z" fill="#e53935"/><path d="M39.51,14.16h.58l.97,2.75h-.58l-.18-.58h-.99l-.18.58h-.57l.96-2.75ZM39.43,15.9h.73l-.25-.79c-.05-.15-.11-.42-.11-.42h0s-.07.28-.12.42l-.25.79Z" fill="#e53935"/><path d="M40.94,14.16h.57l.36,1.36c.05.23.12.6.12.6h0s.07-.34.13-.58l.3-1.38h.54l.3,1.38c.06.24.13.59.13.59h0s.08-.37.13-.6l.35-1.36h.55l-.78,2.75h-.52l-.33-1.47c-.05-.2-.1-.49-.1-.49h0s-.04.29-.09.49l-.34,1.47h-.52l-.8-2.75Z" fill="#e53935"/><path d="M40.94,14.16h.57l.36,1.36c.05.23.12.6.12.6h0s.07-.34.13-.58l.3-1.38h.54l.3,1.38c.06.24.13.59.13.59h0s.08-.37.13-.6l.35-1.36h.55l-.78,2.75h-.52l-.33-1.47c-.05-.2-.1-.49-.1-.49h0s-.04.29-.09.49l-.34,1.47h-.52l-.8-2.75Z" fill="#e53935"/><path d="M45.27,14.16h.58l.97,2.75h-.58l-.18-.58h-.99l-.18.58h-.57l.96-2.75ZM45.19,15.9h.73l-.25-.79c-.05-.15-.11-.42-.11-.42h0s-.07.28-.12.42l-.25.79Z" fill="#e53935"/><path d="M47.09,14.16h.56v2.75h-.56v-2.75Z" fill="#e53935"/><path d="M48.17,14.16h.56v2.75h-.56v-2.75Z" fill="#e53935"/><path d="M27.75,19.7h.52c.04.32.22.44.59.44.27,0,.51-.1.51-.34,0-.26-.25-.31-.65-.4-.47-.11-.91-.23-.91-.78,0-.52.42-.79,1.01-.79s.98.29,1.02.82h-.51c-.03-.27-.24-.4-.51-.4-.29,0-.48.12-.48.31,0,.21.18.28.58.36.54.12.99.25.99.82,0,.53-.43.83-1.03.83-.72,0-1.12-.32-1.14-.87Z" fill="#e53935"/><path d="M30.32,17.88h.54v2.64h-.54v-2.64Z" fill="#e53935"/><path d="M31.34,17.88h.54l.88,1.47c.08.14.18.37.18.37h0s-.01-.27-.01-.46v-1.38h.53v2.64h-.52l-.9-1.46c-.08-.14-.19-.37-.19-.37h0s.01.28.01.46v1.36h-.53v-2.64Z" fill="#e53935"/><path d="M33.85,19.21c0-.78.49-1.38,1.27-1.38.65,0,1.03.39,1.09.89h-.53c-.05-.27-.25-.44-.56-.44-.49,0-.72.41-.72.93s.28.93.72.93c.31,0,.54-.19.57-.46h.52c-.01.23-.11.46-.29.62-.18.17-.44.28-.8.28-.74,0-1.27-.57-1.27-1.36Z" fill="#e53935"/><path d="M36.54,17.88h1.94v.45h-1.41v.59h1.23v.44h-1.23v.71h1.42v.45h-1.95v-2.64Z" fill="#e53935"/><path d="M40.22,19.47c.33-.26.69-.45.69-.79,0-.25-.13-.42-.37-.42-.27,0-.43.2-.44.54h-.49c0-.6.31-.97.94-.97.58,0,.89.38.89.84,0,.5-.34.73-.67.94-.2.13-.45.31-.54.48h1.22v.43h-1.88c.02-.51.34-.81.64-1.05Z" fill="#e53935"/><path d="M41.71,19.2c0-.84.44-1.37,1.11-1.37s1.1.52,1.1,1.37-.41,1.38-1.1,1.38-1.1-.53-1.1-1.38ZM43.37,19.2c0-.56-.16-.93-.55-.93s-.56.37-.56.93.17.94.56.94.55-.37.55-.94Z" fill="#e53935"/><path d="M44.18,19.2c0-.84.44-1.37,1.11-1.37s1.1.52,1.1,1.37-.41,1.38-1.1,1.38-1.1-.53-1.1-1.38ZM45.84,19.2c0-.56-.16-.93-.55-.93s-.56.37-.56.93.17.94.56.94.55-.37.55-.94Z" fill="#e53935"/><path d="M46.73,19.89h.51c.04.16.18.29.41.29.17,0,.29-.05.38-.17.1-.13.17-.35.17-.62h0c-.14.16-.33.29-.61.29-.54,0-.95-.36-.95-.92s.43-.92.99-.92c.7,0,1.09.44,1.09,1.34,0,.84-.28,1.41-1.06,1.41-.55,0-.88-.3-.93-.69ZM48.19,18.75c0-.3-.22-.52-.53-.52s-.52.23-.52.51c0,.3.19.52.52.52.31,0,.54-.21.54-.51Z" fill="#e53935"/><g opacity="0"><rect x=".27" y="14.16" width="19.05" height="6.41" fill="#616161"/></g><path d="M1.18,14.27h.75l.37,1.32c.09.33.17.71.17.71h0s.07-.38.16-.71l.37-1.32h.76v2.64h-.5v-1.51c0-.21.02-.55.02-.55h0s-.06.31-.11.5l-.45,1.56h-.51l-.44-1.56c-.06-.19-.11-.5-.11-.5h0s.02.33.02.55v1.51h-.49v-2.64Z" fill="#e53935"/><path d="M4.16,15.59c0-.79.49-1.38,1.27-1.38s1.27.59,1.27,1.38-.49,1.37-1.27,1.37-1.27-.58-1.27-1.37ZM6.16,15.59c0-.53-.24-.94-.72-.94s-.73.41-.73.94.25.93.73.93.72-.41.72-.93Z" fill="#e53935"/><path d="M7.08,14.27h1.18c.28,0,.5.07.64.19.14.13.21.29.21.49,0,.27-.17.44-.41.53h0c.29.1.49.34.49.66,0,.25-.08.42-.23.55-.15.13-.38.21-.66.21h-1.21v-2.64ZM8.19,15.33c.23,0,.39-.11.39-.32,0-.2-.14-.31-.38-.31h-.59v.63h.58ZM7.61,16.47h.62c.26,0,.41-.14.41-.36,0-.25-.18-.38-.43-.38h-.6v.74Z" fill="#e53935"/><path d="M9.58,14.27h.53v2.64h-.53v-2.64Z" fill="#e53935"/><path d="M10.61,14.27h.53v2.19h1.24v.45h-1.77v-2.64Z" fill="#e53935"/><path d="M12.68,14.27h1.94v.45h-1.41v.59h1.23v.44h-1.23v.71h1.42v.45h-1.95v-2.64Z" fill="#e53935"/><path d="M16.22,14.27h.53v2.64h-.53v-2.64Z" fill="#e53935"/><path d="M17.16,14.27h2.13v.45h-.79v2.19h-.54v-2.19h-.79v-.45Z" fill="#e53935"/><path d="M1.18,17.88h1.89v.45h-1.35v.63h1.15v.46h-1.15v1.09h-.53v-2.64Z" fill="#e53935"/><path d="M3.21,19.2c0-.79.49-1.38,1.27-1.38s1.27.59,1.27,1.38-.49,1.37-1.27,1.37-1.27-.58-1.27-1.37ZM5.21,19.2c0-.53-.24-.94-.72-.94s-.73.41-.73.94.25.93.73.93.72-.41.72-.93Z" fill="#e53935"/><path d="M6.13,17.88h1.21c.51,0,.85.3.85.73,0,.31-.14.55-.48.64h0c.24.08.37.22.4.54.04.37.02.66.11.7v.03h-.51c-.07-.03-.07-.32-.1-.61-.02-.29-.18-.45-.52-.45h-.43v1.06h-.53v-2.64ZM6.66,19.05h.57c.29,0,.44-.15.44-.36s-.14-.37-.42-.37h-.58v.73Z" fill="#e53935"/><path d="M8.46,19.21c0-.78.49-1.38,1.27-1.38.65,0,1.03.39,1.09.89h-.53c-.05-.27-.25-.44-.56-.44-.49,0-.72.41-.72.93s.28.93.72.93c.31,0,.53-.19.57-.46h.52c-.01.23-.11.46-.29.62-.18.17-.44.28-.8.28-.74,0-1.27-.57-1.27-1.36Z" fill="#e53935"/><path d="M11.18,17.88h1.94v.45h-1.41v.59h1.23v.44h-1.23v.71h1.42v.45h-1.95v-2.64Z" fill="#e53935"/><rect x=".27" y=".42" width="49.46" height="20.15" fill="none"/><rect x="21.43" y="2.44" width=".73" height="2.56" fill="#283593"/><rect x="22.34" y="2.44" width=".73" height="2.56" fill="#283593"/><rect x="23.26" y="2.44" width=".73" height="2.56" fill="#283593"/><rect x="24.18" y="2.44" width=".73" height="2.56" fill="#283593"/><rect x="25.09" y="2.44" width=".73" height="2.56" fill="#283593"/><rect x="26.01" y="2.44" width=".73" height="2.56" fill="#283593"/><rect x="21.43" y="5.19" width=".73" height="1.47" fill="#283593"/><rect x="22.34" y="5.19" width=".73" height="1.47" fill="#283593"/><rect x="23.26" y="5.19" width=".73" height="1.47" fill="#283593"/><rect x="24.18" y="5.19" width=".73" height="1.47" fill="#283593"/><rect x="25.09" y="5.19" width=".73" height="1.47" fill="#283593"/><rect x="26.01" y="5.19" width=".73" height="1.47" fill="#283593"/><rect x="21.43" y="6.84" width=".73" height="2.56" fill="#283593"/><rect x="22.34" y="6.84" width=".73" height="2.56" fill="#283593"/><rect x="23.26" y="6.84" width=".73" height="2.56" fill="#283593"/><rect x="24.18" y="6.84" width=".73" height="2.56" fill="#283593"/><rect x="25.09" y="6.84" width=".73" height="2.56" fill="#283593"/><rect x="26.01" y="6.84" width=".73" height="2.56" fill="#283593"/><rect x="21.43" y="9.58" width=".73" height="1.83" fill="#283593"/><rect x="22.34" y="9.58" width=".73" height="1.83" fill="#283593"/><rect x="23.26" y="9.58" width=".73" height="1.83" fill="#283593"/><rect x="24.18" y="9.58" width=".73" height="1.83" fill="#283593"/><rect x="25.09" y="9.58" width=".73" height="1.83" fill="#283593"/><rect x="26.01" y="9.58" width=".73" height="1.83" fill="#283593"/><rect x="21.43" y=".42" width=".73" height="1.83" fill="#283593"/><rect x="20.51" y=".42" width=".73" height="1.83" fill="#283593"/><rect x="26.92" y=".42" width=".73" height="1.83" fill="#283593"/><rect x="20.51" y="9.58" width=".73" height="1.83" fill="#283593"/><rect x="26.92" y="9.58" width=".73" height="1.83" fill="#283593"/><rect x="22.34" y=".42" width=".73" height="1.83" fill="#283593"/><rect x="23.26" y=".42" width=".73" height="1.83" fill="#283593"/><rect x="24.18" y=".42" width=".73" height="1.83" fill="#283593"/><rect x="25.09" y=".42" width=".73" height="1.83" fill="#283593"/><rect x="26.01" y=".42" width=".73" height="1.83" fill="#283593"/><rect x="31.5" y="2.44" width=".73" height="2.56" fill="#283593"/><rect x="32.42" y="2.44" width=".73" height="2.56" fill="#283593"/><rect x="33.34" y="2.44" width=".73" height="2.56" fill="#283593"/><rect x="34.25" y="2.44" width=".73" height="2.56" fill="#283593"/><rect x="35.17" y="2.44" width=".73" height="2.56" fill="#283593"/><rect x="36.08" y="2.44" width=".73" height="2.56" fill="#283593"/><rect x="31.5" y="5.19" width=".73" height="1.47" fill="#283593"/><rect x="32.42" y="5.19" width=".73" height="1.47" fill="#283593"/><rect x="33.34" y="5.19" width=".73" height="1.47" fill="#283593"/><rect x="34.25" y="5.19" width=".73" height="1.47" fill="#283593"/><rect x="35.17" y="5.19" width=".73" height="1.47" fill="#283593"/><rect x="36.08" y="5.19" width=".73" height="1.47" fill="#283593"/><rect x="31.5" y="6.84" width=".73" height="2.56" fill="#283593"/><rect x="32.42" y="6.84" width=".73" height="2.56" fill="#283593"/><rect x="33.34" y="6.84" width=".73" height="2.56" fill="#283593"/><rect x="34.25" y="6.84" width=".73" height="2.56" fill="#283593"/><rect x="35.17" y="6.84" width=".73" height="2.56" fill="#283593"/><rect x="36.08" y="6.84" width=".73" height="2.56" fill="#283593"/><rect x="31.5" y="9.58" width=".73" height="1.83" fill="#283593"/><rect x="32.42" y="9.58" width=".73" height="1.83" fill="#283593"/><rect x="33.34" y="9.58" width=".73" height="1.83" fill="#283593"/><rect x="34.25" y="9.58" width=".73" height="1.83" fill="#283593"/><rect x="35.17" y="9.58" width=".73" height="1.83" fill="#283593"/><rect x="36.08" y="9.58" width=".73" height="1.83" fill="#283593"/><rect x="31.5" y=".42" width=".73" height="1.83" fill="#283593"/><rect x="32.42" y=".42" width=".73" height="1.83" fill="#283593"/><rect x="29.67" y=".42" width=".73" height="1.83" fill="#283593"/><rect x="28.76" y=".42" width=".73" height="1.83" fill="#283593"/><rect x="38.83" y=".42" width=".73" height="1.83" fill="#283593"/><rect x="30.59" y=".42" width=".73" height="1.83" fill="#283593"/><rect x="37" y=".42" width=".73" height="1.83" fill="#283593"/><rect x="37.92" y=".42" width=".73" height="1.83" fill="#283593"/><rect x="33.34" y=".42" width=".73" height="1.83" fill="#283593"/><rect x="34.25" y=".42" width=".73" height="1.83" fill="#283593"/><rect x="35.17" y=".42" width=".73" height="1.83" fill="#283593"/><rect x="36.08" y=".42" width=".73" height="1.83" fill="#283593"/><rect x="40.66" y="2.44" width=".73" height="2.56" fill="#283593"/><rect x="41.58" y="2.44" width=".73" height="2.56" fill="#283593"/><rect x="42.5" y="2.44" width=".73" height="2.56" fill="#283593"/><rect x="43.41" y="2.44" width=".73" height="2.56" fill="#283593"/><rect x="44.33" y="2.44" width=".73" height="2.56" fill="#283593"/><rect x="45.24" y="2.44" width=".73" height="2.56" fill="#283593"/><rect x="40.66" y="5.19" width=".73" height="1.47" fill="#283593"/><rect x="41.58" y="5.19" width=".73" height="1.47" fill="#283593"/><rect x="42.5" y="5.19" width=".73" height="1.47" fill="#283593"/><rect x="43.41" y="5.19" width=".73" height="1.47" fill="#283593"/><rect x="44.33" y="5.19" width=".73" height="1.47" fill="#283593"/><rect x="45.24" y="5.19" width=".73" height="1.47" fill="#283593"/><rect x="40.66" y="6.84" width=".73" height="2.56" fill="#283593"/><rect x="41.58" y="6.84" width=".73" height="2.56" fill="#283593"/><rect x="42.5" y="6.84" width=".73" height="2.56" fill="#283593"/><rect x="43.41" y="6.84" width=".73" height="2.56" fill="#283593"/><rect x="44.33" y="6.84" width=".73" height="2.56" fill="#283593"/><rect x="45.24" y="6.84" width=".73" height="2.56" fill="#283593"/><rect x="40.66" y="9.58" width=".73" height="1.83" fill="#283593"/><rect x="41.58" y="9.58" width=".73" height="1.83" fill="#283593"/><rect x="42.5" y="9.58" width=".73" height="1.83" fill="#283593"/><rect x="43.41" y="9.58" width=".73" height="1.83" fill="#283593"/><rect x="44.33" y="9.58" width=".73" height="1.83" fill="#283593"/><rect x="45.24" y="9.58" width=".73" height="1.83" fill="#283593"/><rect x="47.99" y=".42" width=".73" height="1.83" fill="#283593"/><rect x="48.91" y=".42" width=".73" height="1.83" fill="#283593"/><rect x="46.16" y="5.19" width=".73" height="1.47" fill="#283593"/><rect x="47.08" y="5.19" width=".73" height="1.47" fill="#283593"/><rect x="47.99" y="5.19" width=".73" height="1.47" fill="#283593"/><rect x="48.91" y="5.19" width=".73" height="1.47" fill="#283593"/><rect x="46.16" y=".42" width=".73" height="1.83" fill="#283593"/><rect x="47.08" y=".42" width=".73" height="1.83" fill="#283593"/><rect x="42.5" y=".42" width=".73" height="1.83" fill="#283593"/><rect x="43.41" y=".42" width=".73" height="1.83" fill="#283593"/><rect x="44.33" y=".42" width=".73" height="1.83" fill="#283593"/><rect x="45.24" y=".42" width=".73" height="1.83" fill="#283593"/><rect x="1.18" y=".42" width=".73" height="1.83" fill="#283593"/><rect x="2.1" y=".42" width=".73" height="1.83" fill="#283593"/><rect x="3.02" y=".42" width=".73" height="1.83" fill="#283593"/><rect x="3.93" y=".42" width=".73" height="1.83" fill="#283593"/><rect x="1.18" y="2.44" width=".73" height="2.56" fill="#283593"/><rect x="2.1" y="2.44" width=".73" height="2.56" fill="#283593"/><rect x="3.02" y="2.44" width=".73" height="2.56" fill="#283593"/><rect x="3.93" y="2.44" width=".73" height="2.56" fill="#283593"/><rect x="4.85" y="2.44" width=".73" height="2.56" fill="#283593"/><rect x="5.76" y="2.44" width=".73" height="2.56" fill="#283593"/><rect x="4.85" y="5.19" width=".73" height="1.47" fill="#283593"/><rect x="5.76" y="5.19" width=".73" height="1.47" fill="#283593"/><rect x="5.76" y="5.19" width=".73" height="1.47" fill="#283593"/><rect x="6.68" y="5.19" width=".73" height="1.47" fill="#283593"/><rect x="6.68" y="5.19" width=".73" height="1.47" fill="#283593"/><rect x="7.6" y="5.19" width=".73" height="1.47" fill="#283593"/><rect x="6.68" y="6.84" width=".73" height="2.56" fill="#283593"/><rect x="7.6" y="6.84" width=".73" height="2.56" fill="#283593"/><rect x="8.51" y="6.84" width=".73" height="2.56" fill="#283593"/><rect x="9.43" y="6.84" width=".73" height="2.56" fill="#283593"/><rect x="8.51" y="9.58" width=".73" height="1.83" fill="#283593"/><rect x="9.43" y="9.58" width=".73" height="1.83" fill="#283593"/><rect x="10.34" y="6.84" width=".73" height="2.56" fill="#283593"/><rect x="11.26" y="6.84" width=".73" height="2.56" fill="#283593"/><rect x="10.34" y="5.19" width=".73" height="1.47" fill="#283593"/><rect x="11.26" y="5.19" width=".73" height="1.47" fill="#283593"/><rect x="12.18" y="5.19" width=".73" height="1.47" fill="#283593"/><rect x="13.09" y="5.19" width=".73" height="1.47" fill="#283593"/><rect x="12.18" y="2.44" width=".73" height="2.56" fill="#283593"/><rect x="13.09" y="2.44" width=".73" height="2.56" fill="#283593"/><rect x="14.01" y="2.44" width=".73" height="2.56" fill="#283593"/><rect x="14.92" y="2.44" width=".73" height="2.56" fill="#283593"/><rect x="14.01" y=".42" width=".73" height="1.83" fill="#283593"/><rect x="14.92" y=".42" width=".73" height="1.83" fill="#283593"/><rect x="15.84" y=".42" width=".73" height="1.83" fill="#283593"/><rect x="16.76" y=".42" width=".73" height="1.83" fill="#283593"/><rect x="17.67" y=".42" width=".73" height="1.83" fill="#283593"/><rect x=".27" y=".42" width=".73" height="1.83" fill="#283593"/><rect x="15.84" y="2.44" width=".73" height="2.56" fill="#283593"/><rect x="16.76" y="2.44" width=".73" height="2.56" fill="#283593"/><rect x="14.01" y="6.84" width=".73" height="2.56" fill="#283593"/><rect x="14.92" y="6.84" width=".73" height="2.56" fill="#283593"/><rect x="14.01" y="5.19" width=".73" height="1.47" fill="#283593"/><rect x="14.92" y="5.19" width=".73" height="1.47" fill="#283593"/><rect x="15.84" y="5.19" width=".73" height="1.47" fill="#283593"/><rect x="16.76" y="5.19" width=".73" height="1.47" fill="#283593"/><rect x="15.84" y="6.84" width=".73" height="2.56" fill="#283593"/><rect x="16.76" y="6.84" width=".73" height="2.56" fill="#283593"/><rect x="14.01" y="9.58" width=".73" height="1.83" fill="#283593"/><rect x="14.92" y="9.58" width=".73" height="1.83" fill="#283593"/><rect x="15.84" y="9.58" width=".73" height="1.83" fill="#283593"/><rect x="16.76" y="9.58" width=".73" height="1.83" fill="#283593"/><rect x="1.18" y="5.19" width=".73" height="1.47" fill="#283593"/><rect x="2.1" y="5.19" width=".73" height="1.47" fill="#283593"/><rect x="3.02" y="5.19" width=".73" height="1.47" fill="#283593"/><rect x="3.93" y="5.19" width=".73" height="1.47" fill="#283593"/><rect x="1.18" y="6.84" width=".73" height="2.56" fill="#283593"/><rect x="2.1" y="6.84" width=".73" height="2.56" fill="#283593"/><rect x="3.02" y="6.84" width=".73" height="2.56" fill="#283593"/><rect x="3.93" y="6.84" width=".73" height="2.56" fill="#283593"/><rect x="1.18" y="9.58" width=".73" height="1.83" fill="#283593"/><rect x="2.1" y="9.58" width=".73" height="1.83" fill="#283593"/><rect x="3.02" y="9.58" width=".73" height="1.83" fill="#283593"/><rect x="3.93" y="9.58" width=".73" height="1.83" fill="#283593"/></svg>